<svg width="40" height="40" viewBox="0 0 40 40" fill="none" xmlns="http://www.w3.org/2000/svg">
<path d="M0 5.12C0 2.2923 2.2923 0 5.12 0H34.88C37.7077 0 40 2.2923 40 5.12V34.88C40 37.7077 37.7077 40 34.88 40H5.12C2.2923 40 0 37.7077 0 34.88V5.12Z" fill="#268068"/>
<path d="M13.8275 8H26.1724C26.715 8 27.0009 8.64417 26.6375 9.04782L22.9171 13.1802C22.6576 13.4684 22.5139 13.8428 22.5139 14.231V28.3352C22.5139 28.6532 22.4175 28.9636 22.2375 29.2254L20.5158 31.7286C20.2663 32.0914 19.7311 32.0903 19.483 31.7265L17.7765 29.2237C17.5987 28.9629 17.5036 28.6545 17.5036 28.3387V14.2329C17.5036 13.8436 17.3591 13.4682 17.0983 13.1796L13.3633 9.04881C12.9986 8.64546 13.2843 8 13.8275 8Z" fill="white"/>
</svg>
